<svg width="26" height="24" viewBox="0 0 26 24" fill="none" xmlns="http://www.w3.org/2000/svg">
<path fill-rule="evenodd" clip-rule="evenodd" d="M13 0.0365601C6.22635 0.0365601 0.733643 5.52804 0.733643 12.3029C0.733643 17.7227 4.24831 22.3204 9.1221 23.9425C9.73492 24.0563 9.95999 23.6765 9.95999 23.3525C9.95999 23.06 9.94861 22.0937 9.94333 21.0687C6.53083 21.8107 5.81075 19.6215 5.81075 19.6215C5.25277 18.2037 4.4488 17.8267 4.4488 17.8267C3.33567 17.0653 4.53269 17.0812 4.53269 17.0812C5.76424 17.1675 6.41302 18.3452 6.41302 18.3452C7.50705 20.2201 9.28256 19.6781 9.98253 19.3649C10.0926 18.5721 10.4105 18.0308 10.7613 17.7245C8.0368 17.4147 5.17253 16.3627 5.17253 11.6626C5.17253 10.3234 5.65191 9.22919 6.43658 8.36997C6.30902 8.06122 5.88916 6.81362 6.5552 5.12403C6.5552 5.12403 7.58505 4.79436 9.92911 6.38137C10.9078 6.10939 11.9573 5.97269 13 5.96801C14.042 5.97269 15.0921 6.10898 16.0726 6.38097C18.4138 4.79395 19.4425 5.12362 19.4425 5.12362C20.1101 6.81301 19.6903 8.06081 19.5629 8.36956C20.3494 9.22878 20.8253 10.323 20.8253 11.6622C20.8253 16.3735 17.9558 17.4107 15.2244 17.7145C15.6645 18.0952 16.0566 18.8419 16.0566 19.9861C16.0566 21.6273 16.0424 22.9482 16.0424 23.3523C16.0424 23.6787 16.2634 24.0612 16.8849 23.9407C21.7559 22.3169 25.2665 17.7206 25.2665 12.3029C25.2663 5.52845 19.7742 0.0365601 13 0.0365601Z" fill="white"/>
<path d="M5.37952 17.6481C5.3525 17.709 5.25663 17.7273 5.16928 17.6857C5.07991 17.6459 5.03014 17.5628 5.05899 17.5017C5.08539 17.4387 5.18147 17.4214 5.27024 17.4635C5.35961 17.5035 5.4106 17.5872 5.37952 17.6481ZM5.87636 18.2024C5.81806 18.2567 5.70371 18.2315 5.62611 18.1456C5.54567 18.0602 5.53064 17.9459 5.59016 17.8908C5.65069 17.8368 5.7616 17.8624 5.84203 17.9477C5.92206 18.0342 5.93771 18.1474 5.87636 18.2024ZM6.36021 18.9087C6.28505 18.9611 6.16195 18.9122 6.08599 18.8031C6.01083 18.6938 6.01083 18.5628 6.08802 18.5106C6.16378 18.4582 6.28505 18.5055 6.36224 18.6136C6.43699 18.7243 6.43699 18.8555 6.36021 18.9087ZM7.0226 19.5914C6.95557 19.6655 6.81216 19.6456 6.70735 19.5447C6.6003 19.4458 6.57044 19.305 6.63767 19.2311C6.70592 19.1567 6.84994 19.1774 6.95536 19.2778C7.06241 19.3765 7.0943 19.5177 7.0226 19.5914ZM7.93666 19.9877C7.9068 20.0838 7.76908 20.1275 7.62994 20.0864C7.49121 20.0444 7.40041 19.932 7.42885 19.835C7.45728 19.7381 7.59602 19.6928 7.73597 19.7364C7.8747 19.7783 7.9655 19.89 7.93666 19.9877ZM8.9407 20.061C8.94416 20.1622 8.82635 20.2459 8.68071 20.2479C8.53385 20.2514 8.41502 20.1693 8.4136 20.0698C8.4136 19.9676 8.52897 19.8849 8.67563 19.8821C8.82127 19.8794 8.9407 19.9609 8.9407 20.061ZM9.87467 19.9022C9.89214 20.0007 9.79078 20.1021 9.64596 20.1291C9.50377 20.1555 9.37174 20.0941 9.35346 19.9964C9.33599 19.8953 9.43917 19.7939 9.58136 19.7677C9.72639 19.7427 9.85639 19.802 9.87467 19.9022Z" fill="white"/>
</svg>
