<svg xmlns="http://www.w3.org/2000/svg" viewBox="0 0 139.14 148.94"><defs><style>.cls-1{fill:none;stroke:#fff;stroke-miterlimit:10;stroke-width:16px;}</style></defs><g id="Layer_2" data-name="Layer 2"><g id="Layer_1-2" data-name="Layer 1"><path class="cls-1" d="M64,94.93c-3.76-3.29-11.24-10.6-11.46-23.34A27.18,27.18,0,0,1,54,60.87c.89-3.11,7.65-10.79,8.34-12.55L91.49,15a20.54,20.54,0,0,1,29.15-1.76l3.66,3.28a20.54,20.54,0,0,1,1.75,28.84L103.52,71.07l-4.89,1"/><path class="cls-1" d="M75.41,53.08c2.25,2,7.18,3.2,11.65,15.53,5,13.65-4.39,24-5.38,25.86-3.3,3.76-2.41,3.51-4.2,5.55L47.57,134.15a19.9,19.9,0,0,1-27.91,2L15,132.1a19.89,19.89,0,0,1-2-28.21L38,76.1l4.89-1"/></g></g></svg>