<svg width="1366" height="505"  preserveAspectRatio="none"  viewBox="0 0 1366 505" fill="none" xmlns="http://www.w3.org/2000/svg">
<path d="M743.272 4.9937C892.526 23.0584 931.84 78.5431 965.352 101.769L1374 505H-10V4.9937C146.056 60.4783 183.999 76.2528 227.586 82.4141C264.099 87.5754 347.629 69.5106 387.644 55.3169C422.294 43.026 556.705 -17.5872 743.272 4.9937Z" fill="#3064EA"/>
<path d="M655.1 63.4103C786.884 79.3645 821.596 128.367 851.185 148.879L1212 505H-10V63.4103C127.79 112.413 161.291 126.344 199.776 131.785C232.015 136.344 305.768 120.39 341.099 107.854C371.693 96.9992 490.371 43.4675 655.1 63.4103Z" fill="#1C2ED6"/>
</svg>
