<svg width="1353" height="459" viewBox="0 0 1353 459" fill="none" xmlns="http://www.w3.org/2000/svg">
<path d="M957.83 66.8176C747.945 65.447 620.888 156.86 583.596 202.737C547.704 229.812 474.406 347.458 372 458.596C272.799 566.255 146.284 667.806 0 675H1353V458.596V0C1308.73 22.8436 1167.71 68.1883 957.83 66.8176Z" fill="#1437B3"/>
<path d="M985.868 110.066C790.875 108.793 672.834 193.705 638.188 236.32C606.496 260.223 543.412 360.121 455.556 458.596C361.427 564.102 238.86 667.976 96 675H1353V458.596V48C1311.87 69.2192 1180.86 111.339 985.868 110.066Z" fill="#4B86DF"/>
</svg>
