<svg width="772" height="95" viewBox="0 0 772 95" fill="none" xmlns="http://www.w3.org/2000/svg">
<path d="M113.818 47.7276C102.245 56.8609 105.028 64.4188 87.0352 64.4188C78.1593 64.4188 74.259 66.163 7.33656 72.0502C-22.5531 67.7384 59.6578 57.8535 59.6578 51.0472C59.6578 37.6142 63.2471 23.405 81.2396 23.405C99.2322 23.405 113.818 34.2946 113.818 47.7276Z" fill="#0F5494"/>
<path d="M135.458 28.6593C135.458 40.3264 125.04 49.7845 112.188 49.7845C99.336 49.7845 88.9175 40.3264 88.9175 28.6593C88.9175 16.9921 99.336 7.534 112.188 7.534C125.04 7.534 135.458 16.9921 135.458 28.6593Z" fill="#0F5494"/>
<path d="M323.171 35.701C323.171 54.9416 299.73 70.5392 270.813 70.5392C241.897 70.5392 218.455 54.9416 218.455 35.701C218.455 16.4605 241.897 0.862891 270.813 0.862891C299.73 0.862891 323.171 16.4605 323.171 35.701Z" fill="#0F5494"/>
<path d="M185.101 39.7779C185.101 52.2638 175.204 62.3856 162.994 62.3856C150.785 62.3856 140.888 52.2638 140.888 39.7779C140.888 27.292 150.785 17.1701 162.994 17.1701C175.204 17.1701 185.101 27.292 185.101 39.7779Z" fill="#0F5494"/>
<path d="M380.571 41.1661C380.571 57.5376 364.77 70.8093 345.278 70.8093C325.786 70.8093 309.985 57.5376 309.985 41.1661C309.985 24.7946 325.786 11.5229 345.278 11.5229C364.77 11.5229 380.571 24.7946 380.571 41.1661Z" fill="#0F5494"/>
<path d="M449.606 63.4974C449.606 80.8958 436.062 95 419.355 95C402.647 95 389.103 80.8958 389.103 63.4974C389.103 46.099 402.647 31.9949 419.355 31.9949C436.062 31.9949 449.606 46.099 449.606 63.4974Z" fill="#0F5494"/>
<path d="M406.168 62.4484C406.168 77.5605 394.361 89.8113 379.795 89.8113C365.23 89.8113 353.422 77.5605 353.422 62.4484C353.422 47.3362 365.23 35.0854 379.795 35.0854C394.361 35.0854 406.168 47.3362 406.168 62.4484Z" fill="#0F5494"/>
<path d="M507.006 49.9071C507.006 63.9698 491.552 75.3698 472.488 75.3698C453.425 75.3698 437.971 63.9698 437.971 49.9071C437.971 35.8444 453.425 24.4443 472.488 24.4443C491.552 24.4443 507.006 35.8444 507.006 49.9071Z" fill="#0F5494"/>
<path d="M597.76 34.7053C597.76 53.8054 573.276 69.2891 543.075 69.2891C512.873 69.2891 488.39 53.8054 488.39 34.7053C488.39 15.6052 512.873 0.121582 543.075 0.121582C573.276 0.121582 597.76 15.6052 597.76 34.7053Z" fill="#0F5494"/>
<path d="M772 59.0177C772 70.142 635.086 75.3698 621.806 75.3698C608.526 75.3698 597.76 66.3518 597.76 55.2276C597.76 44.1034 608.526 35.0854 621.806 35.0854C635.086 35.0854 642.414 45.0647 772 59.0177Z" fill="#0F5494"/>
<path d="M230.09 30.883C230.09 41.7314 219.324 50.5258 206.044 50.5258C192.764 50.5258 181.998 41.7314 181.998 30.883C181.998 20.0346 192.764 11.2402 206.044 11.2402C219.324 11.2402 230.09 20.0346 230.09 30.883Z" fill="#0F5494"/>
<path d="M154.85 27.4846C154.85 33.3615 148.599 38.1257 140.888 38.1257C133.177 38.1257 126.926 33.3615 126.926 27.4846C126.926 21.6076 133.177 16.8434 140.888 16.8434C148.599 16.8434 154.85 21.6076 154.85 27.4846Z" fill="#0F5494"/>
<path d="M606.292 47.2468C606.292 55.6424 599.173 62.4484 590.391 62.4484C581.609 62.4484 574.49 55.6424 574.49 47.2468C574.49 38.8511 581.609 32.0451 590.391 32.0451C599.173 32.0451 606.292 38.8511 606.292 47.2468Z" fill="#0F5494"/>
<path d="M658.262 60.9282C658.262 66.3853 652.88 70.8092 646.24 70.8092C639.599 70.8092 634.217 66.3853 634.217 60.9282C634.217 55.471 639.599 51.0471 646.24 51.0471C652.88 51.0471 658.262 55.471 658.262 60.9282Z" fill="#0F5494"/>
</svg>
