<svg width="848" height="156" viewBox="0 0 848 156" fill="none" xmlns="http://www.w3.org/2000/svg">
<path d="M286.04 55.3045C286.04 85.7096 252.612 110.358 211.376 110.358C170.14 110.358 136.712 85.7096 136.712 55.3045C136.712 24.8993 170.14 0.251038 211.376 0.251038C252.612 0.251038 286.04 24.8993 286.04 55.3045Z" fill="#389DE6"/>
<path d="M184.771 96.4326C184.771 111.278 168.826 123.312 149.156 123.312C129.486 123.312 113.54 111.278 113.54 96.4326C113.54 81.5878 129.486 69.5536 149.156 69.5536C168.826 69.5536 184.771 81.5878 184.771 96.4326Z" fill="#389DE6"/>
<path d="M149.385 121.692C149.385 135.464 20.8919 144.524 2.64379 144.524C-15.6043 144.524 66.5904 140.007 66.5904 126.236C66.5904 120.712 34.291 122.748 38.3193 118.616C114.382 115.06 104.127 95.7555 115.055 95.7555C133.303 95.7555 149.385 107.921 149.385 121.692Z" fill="#389DE6"/>
<path d="M333.242 93.8999C333.242 115.573 303.537 126.55 248.511 126.55C193.485 126.55 172.757 120.373 172.757 98.6995C172.757 77.0262 178.582 54.6568 233.609 54.6568C288.635 54.6568 333.242 72.2265 333.242 93.8999Z" fill="#389DE6"/>
<path d="M385.593 77.002C385.593 93.2777 369.647 106.472 349.977 106.472C330.307 106.472 314.361 93.2777 314.361 77.002C314.361 60.7263 330.307 47.5322 349.977 47.5322C369.647 47.5322 385.593 60.7263 385.593 77.002Z" fill="#389DE6"/>
<path d="M443.951 96.4326C443.951 115.57 421.473 131.084 393.746 131.084C366.018 131.084 343.54 115.57 343.54 96.4326C343.54 77.2953 366.018 61.7814 393.746 61.7814C421.473 61.7814 443.951 77.2953 443.951 96.4326Z" fill="#389DE6"/>
<path d="M542.645 77.002C542.645 101.147 513.828 120.721 478.28 120.721C442.731 120.721 413.914 101.147 413.914 77.002C413.914 52.8567 442.731 33.2831 478.28 33.2831C513.828 33.2831 542.645 52.8567 542.645 77.002Z" fill="#389DE6"/>
<path d="M765.292 95.2475C633.36 110.108 634.759 132.075 591.153 132.075C547.548 132.075 512.198 105.977 512.198 73.783C512.198 41.5893 547.548 15.4911 591.153 15.4911C617.628 15.4911 641.06 25.1114 655.384 39.8752C664.653 49.4285 651.534 80.5154 765.292 95.2475Z" fill="#389DE6"/>
<path d="M550.369 121.045C550.369 137.32 531.35 150.515 507.888 150.515C484.426 150.515 465.406 137.32 465.406 121.045C465.406 104.769 484.426 91.575 507.888 91.575C531.35 91.575 550.369 104.769 550.369 121.045Z" fill="#389DE6"/>
<path d="M724.586 111.977C802.987 130.3 892.512 128.776 709.703 136.345C700.168 142.832 687.215 146.526 673.657 146.626C660.099 146.726 647.029 143.223 637.285 136.878C627.542 130.533 621.91 121.858 621.613 112.736C621.316 103.613 626.378 94.7806 635.7 88.1545C645.022 81.5285 657.851 77.6441 671.403 77.3445C684.955 77.045 698.135 80.3544 708.083 86.5545C718.031 92.7546 723.943 101.345 724.537 110.46L673.094 111.977H724.586Z" fill="#389DE6"/>
<path d="M319.511 60.486C319.511 69.7864 312.018 77.3259 302.776 77.3259C293.533 77.3259 286.04 69.7864 286.04 60.486C286.04 51.1856 293.533 43.6461 302.776 43.6461C312.018 43.6461 319.511 51.1856 319.511 60.486Z" fill="#389DE6"/>
<path d="M847.413 140.968C847.413 153.309 753.767 155.048 737.888 155.048C722.01 155.048 709.138 145.044 709.138 132.703C709.138 120.362 693.26 103.884 709.138 103.884C725.016 103.884 729.617 137.92 847.413 140.968Z" fill="#389DE6"/>
<path d="M490.295 117.159C490.295 131.646 476.27 143.39 458.97 143.39C441.67 143.39 427.645 131.646 427.645 117.159C427.645 102.671 441.67 90.9273 458.97 90.9273C476.27 90.9273 490.295 102.671 490.295 117.159Z" fill="#389DE6"/>
</svg>
