<svg width="772" height="84" viewBox="0 0 772 84" fill="none" xmlns="http://www.w3.org/2000/svg">
<path d="M114.132 36.0926C102.304 43.5451 104.871 50.0153 86.8858 49.5739C78.0135 49.3562 74.0653 50.7379 7.00306 54.0829C-22.7518 49.6973 59.7062 43.3411 59.8997 37.5758C60.2814 26.1973 64.273 14.2495 82.2581 14.6909C100.243 15.1323 114.514 24.7142 114.132 36.0926Z" fill="#0F5494"/>
<path d="M136.305 20.4716C135.973 30.3543 125.29 38.1102 112.444 37.7949C99.5973 37.4796 89.452 29.2126 89.7835 19.3299C90.115 9.44718 100.798 1.69127 113.644 2.00655C126.491 2.32184 136.636 10.5889 136.305 20.4716Z" fill="#0F5494"/>
<path d="M323.741 31.0414C323.194 47.3392 299.319 59.976 270.414 59.2666C241.51 58.5572 218.521 44.7702 219.068 28.4725C219.614 12.1747 243.49 -0.462176 272.394 0.247214C301.299 0.956604 324.287 14.7436 323.741 31.0414Z" fill="#0F5494"/>
<path d="M185.612 31.1075C185.257 41.6837 175.076 50.0146 162.871 49.7151C150.667 49.4156 141.061 40.599 141.416 30.0228C141.771 19.4466 151.952 11.1157 164.156 11.4152C176.361 11.7148 185.966 20.5313 185.612 31.1075Z" fill="#0F5494"/>
<path d="M380.961 37.0788C380.496 50.9463 364.324 61.8004 344.84 61.3223C325.357 60.8441 309.939 49.2146 310.404 35.3471C310.869 21.4796 327.041 10.6254 346.525 11.1036C366.009 11.5818 381.427 23.2113 380.961 37.0788Z" fill="#0F5494"/>
<path d="M449.334 57.6881C448.839 72.4254 434.9 84.0402 418.199 83.6303C401.499 83.2204 388.361 70.9412 388.856 56.2038C389.35 41.4665 403.289 29.8518 419.99 30.2617C436.69 30.6715 449.828 42.9508 449.334 57.6881Z" fill="#0F5494"/>
<path d="M405.943 55.7339C405.514 68.5346 393.363 78.622 378.804 78.2647C364.244 77.9074 352.79 67.2407 353.219 54.4399C353.649 41.6391 365.8 31.5517 380.359 31.909C394.918 32.2664 406.373 42.9331 405.943 55.7339Z" fill="#0F5494"/>
<path d="M507.096 47.5845C506.696 59.4964 490.925 68.7737 471.869 68.306C452.813 67.8383 437.69 57.8028 438.089 45.8909C438.489 33.9791 454.261 24.7018 473.316 25.1695C492.372 25.6371 507.496 35.6727 507.096 47.5845Z" fill="#0F5494"/>
<path d="M598.245 36.9343C597.702 53.113 572.789 65.6279 542.599 64.887C512.41 64.146 488.377 50.4299 488.919 34.2512C489.462 18.0724 514.375 5.55761 544.565 6.29853C574.754 7.03945 598.787 20.7556 598.245 36.9343Z" fill="#0F5494"/>
<path d="M771.722 61.8027C771.406 71.2255 634.4 72.2949 621.125 71.9691C607.851 71.6433 597.345 63.7405 597.662 54.3177C597.978 44.8949 608.995 37.5203 622.27 37.8461C635.545 38.1719 642.586 46.8047 771.722 61.8027Z" fill="#0F5494"/>
<path d="M230.835 24.6768C230.527 33.866 219.515 41.0511 206.241 40.7253C192.966 40.3995 182.455 32.6861 182.763 23.497C183.071 14.3078 194.082 7.12264 207.357 7.44843C220.632 7.77422 231.143 15.4876 230.835 24.6768Z" fill="#0F5494"/>
<path d="M155.722 19.9523C155.555 24.9304 149.171 28.8126 141.463 28.6234C133.755 28.4342 127.642 24.2453 127.809 19.2673C127.976 14.2892 134.36 10.407 142.068 10.5962C149.776 10.7853 155.889 14.9742 155.722 19.9523Z" fill="#0F5494"/>
<path d="M606.417 47.7668C606.179 54.8784 598.869 60.4688 590.09 60.2533C581.312 60.0379 574.389 54.0982 574.628 46.9867C574.866 39.8751 582.176 34.2847 590.954 34.5002C599.733 34.7156 606.656 40.6553 606.417 47.7668Z" fill="#0F5494"/>
<path d="M657.977 60.6307C657.822 65.2532 652.316 68.8684 645.678 68.7055C639.041 68.5426 633.786 64.6633 633.941 60.0408C634.096 55.4183 639.603 51.8031 646.24 51.966C652.877 52.1289 658.132 56.0082 657.977 60.6307Z" fill="#0F5494"/>
</svg>
