<svg width="40" height="46" viewBox="0 0 40 46" fill="none" xmlns="http://www.w3.org/2000/svg">
<path d="M38.4719 11.0328L21.1141 1.04221C20.8266 0.862524 20.4313 0.790649 20 0.790649C19.5687 0.790649 19.1734 0.898462 18.8859 1.04221L1.63594 11.0688C1.025 11.4281 0.59375 12.3266 0.59375 13.0094V33.0266C0.59375 33.4219 0.665625 33.8891 0.953125 34.2844L39.3344 12.0031C39.1188 11.5719 38.7953 11.2485 38.4719 11.0328Z" fill="#D26383"/>
<path d="M0.845312 34.2485C1.025 34.536 1.27656 34.7875 1.52813 34.9313L18.85 44.9578C19.1375 45.1375 19.5328 45.2094 19.9641 45.2094C20.3953 45.2094 20.7906 45.1016 21.0781 44.9578L38.3281 34.9313C38.9391 34.5719 39.3703 33.6735 39.3703 32.9907V12.9735C39.3703 12.65 39.3344 12.2906 39.1547 11.9672L0.845312 34.2485Z" fill="#9C033A"/>
<path d="M27.6547 27.3485C26.1453 30.0078 23.2703 31.8047 20 31.8047C15.1484 31.8047 11.1953 27.8516 11.1953 23C11.1953 18.1485 15.1484 14.1953 20 14.1953C23.2703 14.1953 26.1453 15.9922 27.6547 18.6875L32.3266 15.9922C29.8828 11.7157 25.2828 8.80471 20 8.80471C12.1656 8.80471 5.80469 15.1656 5.80469 23C5.80469 30.8344 12.1656 37.1953 20 37.1953C25.2469 37.1953 29.8469 34.3203 32.2906 30.0797L27.6547 27.3485Z" fill="white"/>
<path d="M26.5047 22.2094H28.3734V20.3047H29.9547V22.2094H31.8594V23.7906H29.9547V25.6594H28.3734V23.7906H26.5047V22.2094ZM33.1531 22.2094H35.0219V20.3047H36.6031V22.2094H38.5078V23.7906H36.6031V25.6594H35.0219V23.7906H33.1531V22.2094Z" fill="white"/>
</svg>
