<svg width="40" height="46" viewBox="0 0 40 46" fill="none" xmlns="http://www.w3.org/2000/svg">
<path d="M0.148193 0.359375L3.76171 40.9267L19.976 45.4476L36.2356 40.9102L39.8519 0.359375H0.148193ZM32.345 9.65353L31.1421 23.1678L31.1457 23.2408L31.1407 23.4086V23.4072L30.2861 32.8566L30.1919 33.6961L20.0001 36.515L19.9922 36.5222L9.8179 33.6875L9.12897 25.875H14.1182L14.4722 29.8475L20.0015 31.3461L20.0001 31.349L25.5499 29.8285L26.1364 23.3594H14.5347L14.4351 22.2658L14.2084 19.7038L14.0894 18.3281H26.5774L27.0316 13.2969H8.01132L7.91177 12.204L7.68537 9.64131L7.56605 8.26562H32.4639L32.345 9.65353Z" fill="#0039CA"/>
</svg>
