<svg width="32" height="47" viewBox="0 0 32 47" fill="none" xmlns="http://www.w3.org/2000/svg">
<path d="M8.35156 46.3594C12.6281 46.3594 16.0781 42.9094 16.0781 38.6328V30.9062H8.35156C4.075 30.9062 0.625 34.3563 0.625 38.6328C0.625 42.9094 4.075 46.3594 8.35156 46.3594Z" fill="#0ACF83"/>
<path d="M0.625 23.1797C0.625 18.9031 4.075 15.4531 8.35156 15.4531H16.0781V30.9062H8.35156C4.075 30.9062 0.625 27.4562 0.625 23.1797Z" fill="#A259FF"/>
<path d="M0.625 7.72656C0.625 3.45 4.075 0 8.35156 0H16.0781V15.4531H8.35156C4.075 15.4531 0.625 12.0031 0.625 7.72656Z" fill="#F24E1E"/>
<path d="M16.0781 0H23.8047C28.0812 0 31.5312 3.45 31.5312 7.72656C31.5312 12.0031 28.0812 15.4531 23.8047 15.4531H16.0781V0Z" fill="#FF7262"/>
<path d="M31.5312 23.1797C31.5312 27.4562 28.0812 30.9062 23.8047 30.9062C19.5281 30.9062 16.0781 27.4562 16.0781 23.1797C16.0781 18.9031 19.5281 15.4531 23.8047 15.4531C28.0812 15.4531 31.5312 18.9031 31.5312 23.1797Z" fill="#1ABCFE"/>
</svg>
