<svg width="46" height="46" viewBox="0 0 46 46" fill="none" xmlns="http://www.w3.org/2000/svg">
<path d="M44.829 20.9796L25.0213 1.173C23.8814 0.0323408 22.0313 0.0323408 20.8896 1.173L16.7773 5.2864L21.9947 10.5038C23.2076 10.0945 24.5976 10.369 25.564 11.3354C26.0245 11.7963 26.3461 12.3776 26.4918 13.0127C26.6375 13.6478 26.6016 14.311 26.388 14.9266L31.4164 19.9557C32.6329 19.5363 34.037 19.8073 35.008 20.7805C36.3665 22.1379 36.3665 24.3383 35.008 25.6964C34.6852 26.0194 34.3019 26.2756 33.88 26.4504C33.4582 26.6252 33.006 26.7151 32.5494 26.7151C32.0927 26.7151 31.6405 26.6252 31.2187 26.4504C30.7968 26.2756 30.4135 26.0194 30.0907 25.6964C29.6057 25.2111 29.2751 24.5931 29.1404 23.9203C29.0058 23.2475 29.0732 22.55 29.3342 21.9154L24.6451 17.2259L24.6444 29.5672C24.9846 29.7348 25.2952 29.9566 25.564 30.2242C26.9221 31.5815 26.9221 33.7812 25.564 35.1415C24.2059 36.4988 22.0048 36.4988 20.6481 35.1415C19.2904 33.7816 19.179 31.5819 20.5363 30.2242C20.872 29.8889 21.203 29.6355 21.5624 29.4659V17.0103C21.203 16.8407 20.8724 16.5891 20.536 16.2517C19.5078 15.2238 19.3155 13.7145 19.8431 12.4509L14.7281 7.30717L1.16028 20.888C0.0192662 22.0297 0.0264537 23.8797 1.16747 25.0208L20.9784 44.8274C22.1187 45.968 23.9702 45.968 25.1123 44.8274L44.8276 25.1128C45.9686 23.9714 45.9697 22.1202 44.829 20.9796Z" fill="#F34F29"/>
</svg>
