<svg width="44" height="43" viewBox="0 0 44 43" fill="none" xmlns="http://www.w3.org/2000/svg">
<path fill-rule="evenodd" clip-rule="evenodd" d="M21.7019 0C9.71786 0 0 9.7157 0 21.7019C0 31.2908 6.21827 39.4252 14.8411 42.2952C15.9253 42.4965 16.3235 41.8244 16.3235 41.2512C16.3235 40.7337 16.3034 39.0242 16.2941 37.2108C10.2566 38.5236 8.98258 34.6502 8.98258 34.6502C7.99538 32.1418 6.57297 31.4748 6.57297 31.4748C4.60359 30.1278 6.72139 30.1559 6.72139 30.1559C8.90028 30.3086 10.0481 32.3923 10.0481 32.3923C11.9837 35.7093 15.125 34.7505 16.3634 34.1963C16.5582 32.7937 17.1206 31.836 17.7413 31.294C12.921 30.746 7.85342 28.8848 7.85342 20.5692C7.85342 18.1998 8.70155 16.2639 10.0898 14.7437C9.86412 14.1975 9.1213 11.9902 10.2997 9.00091C10.2997 9.00091 12.1217 8.41764 16.2689 11.2254C18.0004 10.7442 19.8573 10.5024 21.7019 10.4941C23.5455 10.5024 25.4035 10.7435 27.1382 11.2247C31.2804 8.41692 33.1002 9.00019 33.1002 9.00019C34.2815 11.9891 33.5387 14.1967 33.3133 14.743C34.7048 16.2632 35.5469 18.1991 35.5469 20.5685C35.5469 28.9038 30.47 30.7388 25.6375 31.2764C26.4162 31.9499 27.1098 33.2709 27.1098 35.2953C27.1098 38.199 27.0847 40.5361 27.0847 41.2509C27.0847 41.8284 27.4757 42.5051 28.5753 42.292C37.1932 39.4191 43.4042 31.2872 43.4042 21.7019C43.4039 9.71642 33.6871 0 21.7019 0Z" fill="#181616"/>
<path d="M8.21963 31.1589C8.17183 31.2667 8.0022 31.299 7.84767 31.2254C7.68955 31.1549 7.6015 31.008 7.65253 30.8998C7.69925 30.7884 7.86923 30.7578 8.02628 30.8322C8.18441 30.903 8.27461 31.0511 8.21963 31.1589ZM9.09866 32.1396C8.99552 32.2356 8.79319 32.191 8.65591 32.039C8.51359 31.8881 8.487 31.6857 8.5923 31.5883C8.69939 31.4928 8.89561 31.538 9.03792 31.689C9.17952 31.8421 9.20719 32.0422 9.09866 32.1396ZM9.95469 33.3892C9.82172 33.4819 9.60394 33.3953 9.46953 33.2023C9.33656 33.009 9.33656 32.7772 9.47313 32.6848C9.60717 32.5921 9.82172 32.6758 9.95828 32.867C10.0905 33.0629 10.0905 33.295 9.95469 33.3892ZM11.1266 34.597C11.008 34.7282 10.7543 34.693 10.5689 34.5144C10.3795 34.3394 10.3266 34.0903 10.4456 33.9595C10.5663 33.828 10.8211 33.8646 11.0077 34.0422C11.197 34.2168 11.2535 34.4666 11.1266 34.597ZM12.7438 35.2982C12.691 35.4682 12.4473 35.5454 12.2011 35.4728C11.9557 35.3984 11.795 35.1997 11.8454 35.0279C11.8957 34.8565 12.1411 34.7764 12.3887 34.8536C12.6342 34.9277 12.7948 35.1253 12.7438 35.2982ZM14.5202 35.4279C14.5263 35.6069 14.3179 35.7549 14.0602 35.7585C13.8004 35.7646 13.5901 35.6195 13.5876 35.4434C13.5876 35.2626 13.7917 35.1163 14.0512 35.1113C14.3089 35.1066 14.5202 35.2507 14.5202 35.4279ZM16.1726 35.1469C16.2035 35.3212 16.0242 35.5005 15.7679 35.5483C15.5164 35.595 15.2828 35.4865 15.2504 35.3136C15.2195 35.1347 15.4021 34.9553 15.6537 34.909C15.9102 34.8648 16.1402 34.9697 16.1726 35.1469Z" fill="#181616"/>
</svg>
