<svg width="46" height="46" viewBox="0 0 46 46" fill="none" xmlns="http://www.w3.org/2000/svg">
<path d="M0.505859 0.505981H45.4939V45.4943H0.505859V0.505981Z" fill="#F0DB4F"/>
<path d="M41.8121 34.7645C41.4825 32.7121 40.1442 30.9882 36.1799 29.3807C34.8028 28.7478 33.2676 28.2947 32.8101 27.251C32.6476 26.6437 32.6261 26.3016 32.7289 25.9339C33.0239 24.7408 34.4481 24.3688 35.5769 24.711C36.3039 24.9546 36.9921 25.5149 37.4072 26.4087C39.3485 25.1516 39.3446 25.1598 40.7002 24.2959C40.2039 23.5265 39.939 23.1714 39.6141 22.8422C38.4465 21.538 36.8556 20.8664 34.3112 20.9178L32.9858 21.0892C31.7158 21.4101 30.5054 22.0767 29.7956 22.9705C27.666 25.387 28.2733 29.6161 30.8648 31.3565C33.4178 33.2727 37.1682 33.7086 37.6473 35.5005C38.1134 37.6941 36.0351 38.4042 33.9694 38.152C32.4471 37.8353 31.6004 37.0616 30.6851 35.6547C29.0003 36.6296 29.0003 36.6296 27.2682 37.6258C27.6789 38.5239 28.1105 38.9304 28.7991 39.7084C32.0579 43.0139 40.2128 42.8515 41.6755 37.8483C41.7348 37.6765 42.1287 36.5308 41.8121 34.7645ZM24.9628 21.1826H20.7548L20.7376 32.0616C20.7376 34.3753 20.8573 36.4963 20.481 37.1464C19.8654 38.4251 18.2701 38.2666 17.5431 38.0186C16.8032 37.6549 16.4269 37.1378 15.991 36.4068C15.8713 36.197 15.7815 36.0345 15.7513 36.0219L12.33 38.1171C12.8989 39.2847 13.737 40.2981 14.8104 40.9565C16.414 41.9189 18.5691 42.214 20.8231 41.6965C22.2901 41.2692 23.5558 40.384 24.2185 39.0367C25.1766 37.2704 24.971 35.1325 24.9624 32.7678C24.984 28.9099 24.9628 25.0527 24.9628 21.1826Z" fill="#323330"/>
</svg>
