<svg width="46" height="46" viewBox="0 0 46 46" fill="none" xmlns="http://www.w3.org/2000/svg">
<path fill-rule="evenodd" clip-rule="evenodd" d="M18.0572 14.9558C17.845 14.9024 17.6327 14.8604 17.4201 14.8284C15.4707 14.5342 14.0089 16.4016 14.0102 18.3731C14.011 19.6396 14.0142 20.8964 14.0239 22.1533C14.0246 22.2751 14.2075 22.4872 14.3261 22.5033C15.851 22.7093 17.3675 22.7258 18.7935 22.0308C20.2687 21.312 21.0202 19.8091 20.8254 18.0446C20.6486 16.4378 19.6973 15.368 18.0572 14.9558ZM45.6406 22.9867V1.18055C45.6406 0.427297 45.6489 0.359375 44.9176 0.359375H1.25027C0.539063 0.359375 0.359375 0.427656 0.359375 1.14497V44.8123C0.359375 45.5375 0.449938 45.5386 1.15323 45.5386C15.7277 45.5389 30.3456 45.5353 44.9201 45.5519C45.4854 45.5526 45.637 45.402 45.6356 44.8478C45.6162 37.5608 45.6406 30.273 45.6406 22.9867ZM20.2515 25.0855C19.5831 25.3239 18.905 25.4869 18.2179 25.5921C15.9722 25.9359 14.0156 27.611 14.0156 29.8828V31.8047C14.0156 32.8963 13.1307 33.7812 12.0391 33.7812H10.5663C10.2881 33.7812 10.0625 33.5557 10.0625 33.2774C10.0625 26.487 10.0312 19.6973 10.0122 12.9073C10.01 12.3435 10.0995 12.071 10.7349 12.0064C13.7292 11.7002 16.7066 11.3559 19.684 12.0542C22.8846 12.8042 24.73 14.9202 24.8702 17.8437C25.0438 21.464 23.4528 23.9437 20.2515 25.0855ZM36.1754 29.6689C36.023 31.7429 34.8536 33.1045 32.9356 33.7629C30.369 34.6441 27.8163 34.4396 25.3079 33.4427C24.8971 33.2792 24.8177 33.0722 24.9532 32.6535C25.3483 31.431 26.5698 30.748 27.8108 31.0807C28.1006 31.1584 28.3914 31.2262 28.685 31.2778C29.4228 31.4076 30.2202 31.3314 30.9702 31.2139C31.6426 31.1082 32.1263 30.6518 32.2367 29.9302C32.3488 29.1967 32.1278 28.5613 31.4802 28.171C30.9655 27.8613 30.3985 27.6395 29.8547 27.3797C28.9804 26.9617 28.0485 26.634 27.2421 26.1111C24.0684 24.053 25.1016 20.2235 27.2194 18.7813C28.3525 18.0101 29.6064 17.668 30.9487 17.6209C32.1127 17.5801 33.2449 17.7174 34.358 18.0833C35.0604 18.3142 35.3948 19.0814 35.1943 19.7931C34.9548 20.6428 34.0724 21.0354 33.2199 20.806C33.1238 20.7801 33.0273 20.7576 32.9299 20.7395C32.2007 20.6037 31.436 20.5279 30.7 20.5879C29.7131 20.6687 29.1353 21.3497 29.1353 22.1943C29.1353 22.6945 29.325 23.1179 29.7422 23.3605C30.341 23.7087 30.9763 23.9958 31.606 24.2873C32.2873 24.6025 33.0068 24.8447 33.6627 25.2044C35.4128 26.1639 36.3238 27.6482 36.1754 29.6689Z" fill="#0038FF" fill-opacity="0.74"/>
</svg>
