<svg width="44" height="44" viewBox="0 0 44 44" fill="none" xmlns="http://www.w3.org/2000/svg">
<path d="M16.7281 21.2812H27.2071C30.1241 21.2812 32.422 18.813 32.422 15.8838V5.89387C32.422 3.0505 30.0386 0.914371 27.1913 0.439996C25.3894 0.139918 23.5275 0.00335548 21.7335 0.0119805C19.9402 0.0202461 18.2791 0.172981 16.7723 0.439996C12.3322 1.22379 11.5782 2.86614 11.5782 5.89387V9.78123H22.0001V11.2187H7.54461C4.49567 11.2187 1.82552 13.0544 0.990691 16.5414C0.0272062 20.5377 -0.0155595 22.9811 0.990691 27.1538C1.73639 30.2595 3.5171 32.4219 6.56639 32.4219H10.1407V27.7327C10.1407 24.2694 13.1696 21.2812 16.7281 21.2812ZM16.0675 7.22607C14.9801 7.22607 14.0989 6.33518 14.0989 5.23334C14.0989 4.12682 14.9797 3.22767 16.0675 3.22767C17.1511 3.22767 18.0366 4.12682 18.0366 5.23334C18.0362 6.33518 17.1507 7.22607 16.0675 7.22607ZM42.9448 16.5414C42.1909 13.5054 40.7516 11.2187 37.6983 11.2187H33.8595V15.8838C33.8595 19.4955 30.6991 22.3594 27.2071 22.3594H16.7281C13.8574 22.3594 11.5782 24.9921 11.5782 27.8671V37.8578C11.5782 40.7004 14.0022 42.3729 16.7755 43.1887C20.0969 44.1652 23.2421 44.3416 27.2157 43.1887C29.8568 42.4236 32.422 40.8848 32.422 37.8578V33.8594H22.0001V32.4219H37.6983C40.7473 32.4219 41.884 30.3461 42.9448 27.1534C44.0399 23.8669 43.9928 20.7569 42.9448 16.5414ZM27.8673 36.5248C28.9551 36.5248 29.8363 37.4157 29.8363 38.5183C29.8363 39.6237 28.9555 40.5232 27.8673 40.5232C26.7838 40.5232 25.8986 39.6241 25.8986 38.5183C25.8986 37.4157 26.7838 36.5248 27.8673 36.5248Z" fill="#FFD845"/>
</svg>
